<svg  xmlns="http://www.w3.org/2000/svg" xmlns:xlink="http://www.w3.org/1999/xlink">
    <defs>
        <symbol id="facebook" viewBox="0 0 32 32">
            <path d="M27.312 0H4.688A4.693 4.693 0 0 0 0 4.688v22.624A4.693 4.693 0 0 0 4.688 32h9.437V20.688h-3.75v-5.626h3.75v-3.813a5.633 5.633 0 0 1 5.625-5.624h5.687v5.622h-5.686v3.813h5.686l-.936 5.626h-4.752V32h7.563A4.693 4.693 0 0 0 32 27.312V4.688A4.693 4.693 0 0 0 27.312 0z"/>
        </symbol>
        <symbol id="github" viewBox="0 0 34 32">
            <path d="M16.8.8C7.96.8.8 7.776.8 16.384c0 6.888 4.584 12.73 10.941 14.789.8.146 1.093-.336 1.093-.75 0-.37-.014-1.35-.021-2.65-4.45.939-5.389-2.091-5.389-2.091-.728-1.798-1.779-2.28-1.779-2.28-1.45-.966.112-.946.112-.946 1.606.107 2.45 1.605 2.45 1.605 1.427 2.384 3.746 1.696 4.661 1.296.144-1.008.555-1.693 1.013-2.083-3.552-.39-7.288-1.73-7.288-7.701 0-1.702.621-3.093 1.648-4.182-.181-.394-.72-1.979.139-4.125 0 0 1.339-.418 4.4 1.597 1.28-.346 2.64-.517 4-.525 1.36.008 2.72.179 4 .525 3.04-2.016 4.379-1.597 4.379-1.597.861 2.146.32 3.731.16 4.125a5.926 5.926 0 0 1 1.641 4.103l-.001.084v-.004c0 5.987-3.739 7.304-7.299 7.688.56.467 1.08 1.424 1.08 2.883 0 2.086-.021 3.762-.021 4.269 0 .408.28.896 1.101.739 6.4-2.045 10.981-7.89 10.981-14.768 0-8.606-7.163-15.584-16-15.584z"/>
        </symbol>
        <symbol id="instagram" viewBox="0 0 32 32">
            <path d="M0 10v12c0 5.523 4.477 10 10 10h12c5.523 0 10-4.477 10-10V10c0-5.523-4.477-10-10-10H10C4.477 0 0 4.477 0 10zm22-7a7.009 7.009 0 0 1 7 7v12a7.009 7.009 0 0 1-7 7H10a7.009 7.009 0 0 1-7-7V10a7.009 7.009 0 0 1 7-7h12z"/>
            <path d="M8 16a8 8 0 0 0 16 0 8 8 0 0 0-16 0zm13 0a5.008 5.008 0 0 1-5 5 5.007 5.007 0 0 1-5-5 5.007 5.007 0 0 1 5-5 5.008 5.008 0 0 1 5 5zM8.466 7.4a1.066 1.066 0 0 0-2.132 0 1.066 1.066 0 0 0 2.132 0z"/>
        </symbol>
        <symbol id="closebtn" viewBox="0 0 32 32">
            <path d="M17.157 14.523 28.449 3.231a1.876 1.876 0 0 0 0-2.657 1.877 1.877 0 0 0-2.657 0L14.5 11.867 3.208.574a1.877 1.877 0 0 0-2.657 0 1.876 1.876 0 0 0 0 2.657l11.292 11.292L.551 25.816a1.876 1.876 0 0 0 0 2.656c.366.366.848.55 1.328.55.481 0 .962-.183 1.329-.55L14.5 17.18l11.292 11.292a1.874 1.874 0 0 0 2.657 0 1.876 1.876 0 0 0 0-2.657L17.157 14.524Z" />
        </symbol>
        <symbol id="design" viewBox="0 0 38 32">
            <path d="M35.637 0h-33.179c-1.357 0.002-2.456 1.101-2.458 2.458v20.892c0.002 1.357 1.101 2.456 2.458 2.458h12.665l-0.818 2.456h-2.014c-0 0-0.001 0-0.002 0-0.339 0-0.614 0.275-0.614 0.614 0 0.001 0 0.001 0 0.002v-0 1.228h-5.53c-0.339 0-0.614 0.275-0.614 0.614s0.275 0.614 0.614 0.614v0h27.035c0.339 0 0.614-0.275 0.614-0.614s-0.275-0.614-0.614-0.614v0h-6.757v-1.228c0-0 0-0.001 0-0.002 0-0.339-0.275-0.614-0.614-0.614 0 0 0 0 0 0h-2.016l-0.818-2.456h12.664c1.356-0.003 2.454-1.102 2.456-2.458v-20.892c-0.002-1.357-1.101-2.456-2.458-2.458h-0zM25.192 29.493v0.614h-12.288v-0.614h12.288zM15.599 28.264l0.82-2.456h5.257l0.82 2.456h-6.897zM36.867 23.349c-0.001 0.678-0.551 1.228-1.23 1.228h-33.179c-0.679 0-1.229-0.55-1.23-1.228v-1.23h35.637v1.23zM10.418 15.36l-0.232 5.53h-0.716l-0.229-5.531h1.176zM9.326 14.13l0.411-2.458h0.186l0.411 2.458h-1.009zM9.829 10.443c-0.664 0-1.228-0.843-1.228-1.842 0-0.631 0.645-1.547 1.228-2.193 0.526 0.584 1.23 1.518 1.23 2.194 0 0.998-0.564 1.842-1.228 1.842zM16.517 9.214l0.072 0.146v0.469h-2.456v-0.469l0.073-0.146h2.313zM14.818 7.986l0.542-1.083 0.542 1.082h-1.085zM16.588 11.058v9.754c0 0.026 0.002 0.052 0.006 0.076h-2.469c0.003-0.023 0.005-0.049 0.005-0.076 0-0 0-0 0-0v0-9.752h2.458zM22.12 8.6h1.842v1.23h-0.614c-0.339 0-0.614 0.275-0.614 0.614s0.275 0.614 0.614 0.614v0h0.614v1.23h-1.844c-0.339 0-0.614 0.275-0.614 0.614s0.275 0.614 0.614 0.614v0h1.844v1.228h-0.614c-0.34 0-0.615 0.275-0.615 0.615s0.275 0.615 0.615 0.615h0.614v1.228h-1.844c-0.34 0-0.615 0.275-0.615 0.615s0.275 0.615 0.615 0.615h1.844v2.458h-4.302v-14.746h4.302v1.23h-1.844c-0.339 0-0.614 0.275-0.614 0.614s0.275 0.614 0.614 0.614v0zM29.492 15.974v4.838c0 0.026 0.002 0.052 0.005 0.076h-2.469c0.003-0.022 0.006-0.049 0.006-0.076v-4.839h2.458zM27.034 14.744v-0.466l1.228-2.456 1.23 2.456v0.469h-2.458zM36.864 20.89h-6.149c0.003-0.023 0.005-0.049 0.005-0.076v-6.683c-0-0.1-0.024-0.194-0.066-0.278l0.002 0.004-1.844-3.688c-0.104-0.202-0.311-0.338-0.549-0.338s-0.446 0.136-0.548 0.334l-0.002 0.003-1.844 3.688c-0.041 0.080-0.065 0.174-0.066 0.274v6.682c0 0.026 0.003 0.052 0.006 0.076h-0.62v-15.357c0-0.339-0.275-0.614-0.614-0.614v0h-5.528c-0.339 0-0.614 0.275-0.614 0.614v15.36h-0.62c0.003-0.022 0.006-0.049 0.006-0.076v-11.597c-0-0.101-0.024-0.195-0.067-0.279l0.002 0.004-1.844-3.688c-0.103-0.203-0.31-0.34-0.549-0.34s-0.446 0.137-0.548 0.336l-0.002 0.003-1.844 3.688c-0.040 0.080-0.064 0.174-0.064 0.274v0 11.598c0 0.027 0.002 0.053 0.005 0.079l-0-0.003h-1.49l0.256-6.118v-0.061c-0.002-0.024-0.004-0.046-0.008-0.068l0.001-0.001-0.568-3.412c0.713-0.538 1.192-1.516 1.192-2.632 0-1.579-1.832-3.328-2.040-3.522-0.11-0.102-0.257-0.165-0.419-0.165s-0.309 0.063-0.419 0.165l0-0c-0.207 0.194-2.036 1.944-2.036 3.523 0 1.115 0.477 2.094 1.19 2.632l-0.568 3.412c-0.003 0.018-0.006 0.041-0.008 0.064l-0 0.002v0.061l0.256 6.12h-7.017v-18.434c0-0.679 0.551-1.23 1.23-1.23v0h33.179c0.678 0.001 1.228 0.551 1.228 1.23v0 18.434z"></path>
            <path d="M6.76 22.735h-3.688c-0.339 0-0.614 0.275-0.614 0.614s0.275 0.614 0.614 0.614h3.688c0.34 0 0.615-0.275 0.615-0.615s-0.275-0.615-0.615-0.615v0zM9.216 22.735h-0.614c-0.339 0-0.614 0.275-0.614 0.614s0.275 0.614 0.614 0.614h0.614c0.34 0 0.615-0.275 0.615-0.615s-0.275-0.615-0.615-0.615v0zM15.36 11.674c-0.339 0-0.614 0.275-0.614 0.614v0 6.76c0 0.34 0.275 0.615 0.615 0.615s0.615-0.275 0.615-0.615v0-6.76c0-0.339-0.275-0.614-0.614-0.614v0zM28.264 16.59c-0.339 0.001-0.613 0.275-0.614 0.614v1.844c0 0.34 0.275 0.615 0.615 0.615s0.615-0.275 0.615-0.615v0-1.844c0 0 0 0 0 0 0-0.339-0.275-0.614-0.614-0.614-0.001 0-0.001 0-0.002 0h0zM3.072 3.688h4.916c0.34 0 0.615-0.275 0.615-0.615s-0.275-0.615-0.615-0.615v0h-4.916c-0.339 0-0.614 0.275-0.614 0.614s0.275 0.614 0.614 0.614v0zM3.072 5.531h1.23c0.34 0 0.615-0.275 0.615-0.615s-0.275-0.615-0.615-0.615v0h-1.23c-0.339 0-0.614 0.275-0.614 0.614s0.275 0.614 0.614 0.614v0zM32.564 19.662h2.459c0.321-0.023 0.572-0.289 0.572-0.614s-0.251-0.591-0.57-0.614l-0.002-0h-2.459c-0.339 0-0.614 0.275-0.614 0.614s0.275 0.614 0.614 0.614v0zM34.408 17.819h0.616c0.34 0 0.615-0.275 0.615-0.615s-0.275-0.615-0.615-0.615h-0.614c-0.321 0.023-0.572 0.289-0.572 0.614s0.251 0.591 0.57 0.614l0.002 0z"></path>
        </symbol>
        <symbol id="mobile-dev" viewBox="0 0 18 32">
            <path d="M15 0h-13c-1.104 0.001-1.999 0.896-2.001 2.001v26.999c0.001 1.104 0.896 1.999 2.001 2.001h13c1.104-0.002 1.998-0.897 1.999-2v-26.999c-0.001-1.104-0.895-1.998-1.998-2.001h-0zM10.84 1l-0.282 1h-4.168l-0.251-0.998h4.701zM16 29c-0.001 0.552-0.448 1-1 1.001h-13c-0.553-0.001-1-0.448-1.001-1.001v-26.999c0-0 0-0.001 0-0.001 0-0.552 0.447-1 1-1.001h3.11l0.406 1.622c0.056 0.219 0.251 0.379 0.484 0.379h4.938c0 0 0 0 0.001 0 0.228 0 0.42-0.153 0.48-0.361l0.001-0.004 0.46-1.635h3.121c0.552 0.001 0.999 0.448 1 1v27z"></path>
            <path d="M6.001 28h-3.501c-0.276 0-0.5 0.224-0.5 0.5s0.224 0.5 0.5 0.5v0h3.5c0.276 0 0.5-0.224 0.5-0.5s-0.224-0.5-0.5-0.5v0zM8 28h-0.499c-0.276 0-0.5 0.224-0.5 0.5s0.224 0.5 0.5 0.5v0h0.499c0.276 0 0.5-0.224 0.5-0.5s-0.224-0.5-0.5-0.5v0zM10.257 12.571c-0.073-0.045-0.162-0.071-0.257-0.071-0.181 0-0.339 0.096-0.427 0.24l-0.001 0.002-3 5c-0.045 0.073-0.071 0.162-0.071 0.257 0 0.276 0.224 0.5 0.5 0.5 0.181 0 0.34-0.096 0.428-0.241l0.001-0.002 2.999-5c0.045-0.073 0.071-0.162 0.071-0.257 0-0.181-0.096-0.34-0.24-0.428l-0.002-0.001zM11.891 12.687c-0.092-0.115-0.233-0.188-0.39-0.188-0.276 0-0.5 0.224-0.5 0.5 0 0.119 0.041 0.228 0.11 0.313l-0.001-0.001 1.75 2.189-1.751 2.186c-0.069 0.085-0.11 0.194-0.11 0.313 0 0.276 0.224 0.5 0.5 0.5 0.157 0 0.298-0.073 0.39-0.186l0.001-0.001 2.001-2.501c0.068-0.085 0.109-0.194 0.109-0.312s-0.041-0.228-0.11-0.313l0.001 0.001-2.001-2.5zM5.11 18.313c0.092 0.11 0.23 0.179 0.383 0.179 0.276 0 0.5-0.224 0.5-0.5 0-0.115-0.039-0.221-0.104-0.305l0.001 0.001-1.75-2.186 1.75-2.189c0.068-0.085 0.11-0.194 0.11-0.312 0-0.276-0.224-0.5-0.5-0.5-0.157 0-0.298 0.073-0.39 0.187l-0.001 0.001-2.001 2.5c-0.069 0.085-0.11 0.194-0.11 0.313s0.042 0.228 0.111 0.314l2 2.499z"></path>
        </symbol>
        <symbol  id="web-dev" viewBox="0 0 33 32">
            <path d="M0 0v27.36h10.699v1.957h-1.956v1.953h15.847v-1.953h-1.955v-1.957h10.699v-27.36h-33.333zM20.681 29.317h-8.029v-1.957h8.029v1.957zM31.38 25.408h-29.427v-3.912h29.427v3.912zM31.38 19.543h-29.427v-17.589h29.427v17.589z"></path>
            <path d="M13.277 7.217l-1.381-1.38-4.909 4.909 4.911 4.912 1.381-1.381-3.532-3.531 3.531-3.531zM21.437 5.837l-1.381 1.38 3.531 3.531-3.531 3.531 1.381 1.381 4.909-4.913-4.911-4.911zM16.843 4.859l-2.267 11.4 1.915 0.38 2.267-11.4-1.915-0.38z"></path>
        </symbol>
            <symbol id="courses" viewBox="0 0 33 32">
            <path d="M3.906 19.939l-2.486-0.549c-0.729 1.47-1.42 3.121-1.42 5.024 0 1.866 0.663 3.497 1.42 5.024l8.411-1.855v3.659l2.93-1.465 2.93 1.465v-3.657l8.345 1.854c0.723-1.459 1.421-3.114 1.421-5.025 0-0.329-0.024-0.657-0.065-0.977h7.943v-23.437h-29.427v19.939zM2.534 27.192c-0.254-0.672-0.581-1.739-0.581-2.778s0.327-2.106 0.581-2.778l7.296 1.61v2.337l-7.296 1.609zM13.737 28.081l-0.977-0.488-0.977 0.488v-4.644h1.953v4.644zM22.922 27.191l-7.232-1.607v-2.339l7.232-1.607c0.254 0.672 0.581 1.738 0.581 2.777s-0.327 2.105-0.581 2.777zM31.38 1.953v19.531h-6.442c-0.32-0.979-0.578-1.442-0.903-2.095l-9.429 2.095h-3.693l-5.054-1.115v-18.416h25.521z"></path>
            <path d="M11.784 3.906h13.672v1.953h-13.672v-1.953z"></path>
            <path d="M7.813 11.719h21.615v1.953h-21.615v-1.953z"></path>
            <path d="M11.784 15.625h13.672v1.953h-13.672v-1.953z"></path>
            <path d="M13.737 7.813h1.953v1.953h-1.953v-1.953z"></path>
            <path d="M17.643 7.813h1.953v1.953h-1.953v-1.953z"></path>
            <path d="M21.549 7.813h1.953v1.953h-1.953v-1.953z"></path>
        </symbol>
        <symbol id="designer" viewBox="0 0 32 32">
            <path d="M25.939 24.506l-0.832 0.555 1.959 2.939h-22.131l2.333-3.5h12.703v-1h-12.971c-0.082 0-0.163 0.020-0.236 0.059s-0.134 0.095-0.18 0.163l-3 4.5c-0.055 0.082-0.084 0.179-0.084 0.277v1.5c0 0.265 0.105 0.52 0.293 0.707s0.442 0.293 0.707 0.293h23c0.265 0 0.52-0.105 0.707-0.293s0.293-0.442 0.293-0.707v-1.5c-0-0.099-0.029-0.195-0.084-0.277l-2.477-3.716zM4.5 30v-1h23v1h-23z"></path>
            <path d="M26 1h-20c-0.397 0.001-0.778 0.16-1.059 0.441s-0.439 0.662-0.441 1.059v13c0.001 0.397 0.16 0.778 0.441 1.059s0.662 0.439 1.059 0.441h7v2h-2c-0.133 0-0.26 0.053-0.354 0.146s-0.146 0.221-0.146 0.354v2c0 0.133 0.053 0.26 0.146 0.354s0.221 0.146 0.354 0.146h10c0.133 0 0.26-0.053 0.354-0.146s0.146-0.221 0.146-0.354v-2c0-0.133-0.053-0.26-0.146-0.354s-0.221-0.146-0.354-0.146h-2v-2h7c0.397-0.001 0.778-0.16 1.059-0.441s0.439-0.662 0.441-1.059v-13c-0.001-0.397-0.16-0.778-0.441-1.059s-0.662-0.439-1.059-0.441zM20.5 20v1h-9v-1h9zM14 19v-2h4v2h-4zM26.5 15.5c0 0.133-0.053 0.26-0.146 0.354s-0.221 0.146-0.354 0.146h-20c-0.133 0-0.26-0.053-0.354-0.146s-0.146-0.221-0.146-0.354v-1.5h21v1.5zM26.5 13h-21v-10.5c0-0.133 0.053-0.26 0.146-0.354s0.221-0.146 0.354-0.146h20c0.133 0 0.26 0.053 0.354 0.146s0.146 0.221 0.146 0.354v10.5z"></path>
            <path d="M23.5 14.5h1v1h-1v-1z"></path>
            <path d="M11.5 12h2c0.133 0 0.26-0.053 0.354-0.146s0.146-0.221 0.146-0.354v-0.5h4v0.5c0 0.133 0.053 0.26 0.146 0.354s0.221 0.146 0.354 0.146h2c0.133 0 0.26-0.053 0.354-0.146s0.146-0.221 0.146-0.354v-2c0-0.133-0.053-0.26-0.146-0.354s-0.221-0.146-0.354-0.146h-0.5v-3h0.5c0.133 0 0.26-0.053 0.354-0.146s0.146-0.221 0.146-0.354v-2c0-0.133-0.053-0.26-0.146-0.354s-0.221-0.146-0.354-0.146h-2c-0.133 0-0.26 0.053-0.354 0.146s-0.146 0.221-0.146 0.354v0.5h-4v-0.5c0-0.133-0.053-0.26-0.146-0.354s-0.221-0.146-0.354-0.146h-2c-0.133 0-0.26 0.053-0.354 0.146s-0.146 0.221-0.146 0.354v2c0 0.133 0.053 0.26 0.146 0.354s0.221 0.146 0.354 0.146h0.5v3h-0.5c-0.133 0-0.26 0.053-0.354 0.146s-0.146 0.221-0.146 0.354v2c0 0.133 0.053 0.26 0.146 0.354s0.221 0.146 0.354 0.146zM20 11h-1v-1h1v1zM19 4h1v1h-1v-1zM12 4h1v1h-1v-1zM13 6h0.5c0.133 0 0.26-0.053 0.354-0.146s0.146-0.221 0.146-0.354v-0.5h4v0.5c0 0.133 0.053 0.26 0.146 0.354s0.221 0.146 0.354 0.146h0.5v3h-0.5c-0.133 0-0.26 0.053-0.354 0.146s-0.146 0.221-0.146 0.354v0.5h-4v-0.5c0-0.133-0.053-0.26-0.146-0.354s-0.221-0.146-0.354-0.146h-0.5v-3zM12 10h1v1h-1v-1z"></path>
            <path d="M11.5 26h7v1h-7v-1z"></path>
            <path d="M29.935 18.42l-1.415-1.415c-0.047-0.047-0.102-0.083-0.163-0.108s-0.126-0.037-0.192-0.037c-0.065-0.001-0.13 0.012-0.19 0.037s-0.115 0.062-0.16 0.108l-6.72 6.72c-0.055 0.055-0.096 0.121-0.12 0.195l-0.355 1.060c-0.029 0.088-0.032 0.182-0.011 0.272s0.067 0.172 0.131 0.238l-0.705 0.71 0.705 0.705 0.71-0.705c0.046 0.046 0.1 0.083 0.16 0.108s0.124 0.038 0.189 0.037c0.054-0 0.108-0.009 0.16-0.025l1.060-0.355c0.073-0.024 0.14-0.065 0.195-0.12l6.72-6.72c0.093-0.094 0.145-0.22 0.145-0.352s-0.052-0.259-0.145-0.352zM22.595 25.055l-0.655 0.215-0.275-0.27 0.22-0.655 4.865-4.865 0.71 0.705-4.865 4.87zM28.165 19.48l-0.705-0.705 0.705-0.71 0.71 0.71-0.71 0.705z"></path>
        </symbol>
        <symbol id="developer" viewBox="0 0 32 32">
            <path d="M28.8 4.8h-14.4v1.067h14.4v-1.067z"></path>
            <path d="M23.467 6.933h-9.067v1.067h9.067v-1.067z"></path>
            <path d="M23.467 9.067h-9.067v1.067h9.067v-1.067z"></path>
            <path d="M28.8 2.667h-10.133v1.067h10.133v-1.067z"></path>
            <path d="M17.6 2.667h-1.067v1.067h1.067v-1.067z"></path>
            <path d="M16.533 21.333h-1.067v1.067h1.067v-1.067z"></path>
            <path d="M8.91 3.577l-0.754-0.754-1.067 1.067c-0.208 0.208-0.208 0.546 0 0.754l1.067 1.067 0.754-0.754-0.69-0.69 0.69-0.69z"></path>
            <path d="M13.177 3.89l-1.067-1.067-0.754 0.754 0.69 0.69-0.69 0.69 0.754 0.754 1.067-1.067c0.208-0.208 0.208-0.546 0-0.754z"></path>
            <path d="M10.161 2.497l-1.068 3.2 1.011 0.337 1.068-3.2-1.011-0.337z"></path>
            <path d="M27.733 16.533v-4.267h-1.067v4.267h-1.067v-5.333h-1.067v5.333h-1.067v-2.667h-1.067v2.667h-1.067v-3.2h-1.067v3.2h-1.067v-2.133h-1.067v2.133h-1.067v1.067h11.733v-1.067h-1.067z"></path>
            <path d="M28.267 0h-24.533c-1.767 0.002-3.198 1.433-3.2 3.2v18.133c0.002 1.767 1.433 3.198 3.2 3.2h6.604l-2.133 4.267h-2.87c-0.884 0-1.6 0.716-1.6 1.6s0.716 1.6 1.6 1.6h21.333c0.884 0 1.6-0.716 1.6-1.6s-0.716-1.6-1.6-1.6h-2.87l-2.133-4.267h6.604c1.767-0.002 3.198-1.433 3.2-3.2v-18.133c-0.002-1.767-1.433-3.198-3.2-3.2zM1.6 7.504l1.212 1.443c0.101 0.121 0.251 0.19 0.409 0.19h1.633c0.158 0 0.307-0.070 0.409-0.19l1.213-1.443 1.197 0.389 0.132 1.879c0.011 0.157 0.091 0.301 0.218 0.394l1.321 0.96c0.128 0.092 0.29 0.124 0.443 0.086l1.831-0.455 0.74 1.018-0.998 1.6c-0.083 0.134-0.102 0.298-0.052 0.447l0.505 1.553c0.049 0.15 0.161 0.27 0.307 0.33l1.748 0.709v1.259l-1.749 0.709c-0.146 0.059-0.259 0.18-0.307 0.33l-0.16 0.489h-3.073c1.195-2.502 0.135-5.5-2.367-6.695-1.47-0.702-3.189-0.647-4.611 0.146v-5.147zM1.6 13.92c1.725-1.346 4.215-1.038 5.56 0.687 1.039 1.332 1.119 3.176 0.2 4.593h-5.76v-5.28zM26.667 29.867c0.295 0 0.533 0.239 0.533 0.533s-0.239 0.533-0.533 0.533h-21.333c-0.295 0-0.533-0.239-0.533-0.533s0.239-0.533 0.533-0.533h21.333zM22.604 28.8h-13.207l2.133-4.267h8.941l2.133 4.267zM30.4 21.333c0 1.178-0.955 2.133-2.133 2.133h-24.533c-1.178 0-2.133-0.955-2.133-2.133v-1.067h28.8v1.067zM30.4 19.2h-17.464l1.665-0.675c0.201-0.082 0.333-0.277 0.333-0.494v-1.978c0-0.217-0.132-0.413-0.333-0.494l-1.854-0.75-0.351-1.080 1.057-1.696c0.115-0.184 0.106-0.42-0.021-0.595l-1.163-1.6c-0.128-0.176-0.349-0.257-0.56-0.204l-1.939 0.48-0.916-0.666-0.14-1.989c-0.015-0.217-0.161-0.403-0.367-0.47l-1.88-0.611c-0.207-0.066-0.433-0.001-0.573 0.165l-1.284 1.528h-1.138l-1.284-1.528c-0.14-0.166-0.367-0.231-0.574-0.165l-0.013 0.005v-3.182c0-1.178 0.955-2.133 2.133-2.133h24.533c1.178 0 2.133 0.955 2.133 2.133v16z"></path>
        </symbol>
        <symbol id="university" viewBox="0 0 27 32">
            <path d="M22.678 20.906l-1.878-0.551-4.086-2.669v-0.612c1.183-0.892 1.995-2.256 2.146-3.82 0.593-0.095 1.048-0.611 1.048-1.231v-1.682c0-0.007-0.001-0.013-0.001-0.019v-2.13c0.236-0.169 0.386-0.445 0.386-0.754v-1.949l2.82-0.48c0.463-0.079 0.797-0.447 0.829-0.916s-0.246-0.88-0.694-1.022l-9.506-3.024c-0.198-0.063-0.408-0.063-0.606-0l-9.506 3.024c-0.448 0.142-0.727 0.553-0.694 1.022 0.021 0.298 0.163 0.555 0.383 0.723v2.549h-0.023c-0.535 0-0.971 0.436-0.971 0.971v1.265l-0.627 3.678c-0.108 0.636 0.382 1.218 1.029 1.218h2.122c0.645 0 1.137-0.581 1.029-1.219l-0.627-3.678v-1.265c0-0.535-0.436-0.971-0.971-0.971h-0.023v-2.273l2.331 0.397v1.949c0 0.308 0.149 0.583 0.385 0.753l0.001 2.151v1.681c0 0.62 0.455 1.135 1.048 1.231 0.151 1.563 0.962 2.926 2.144 3.818v0.614l-4.085 2.668-1.877 0.551c-2.008 0.589-3.426 2.433-3.426 4.576v1.397c0 0.259 0.21 0.469 0.469 0.469s0.469-0.21 0.469-0.469v-1.397c0-1.689 1.132-3.201 2.752-3.677l1.748-0.513 6.985 4.151c0.142 0.084 0.329 0.089 0.479 0l6.986-4.151 1.748 0.513c1.62 0.476 2.752 1.987 2.752 3.676v4.527c0 0.581-0.472 1.053-1.053 1.053h-2.066v-2.020c0-0.259-0.21-0.469-0.469-0.469s-0.469 0.21-0.469 0.469v2.020h-15.341v-2.020c0-0.259-0.21-0.469-0.469-0.469s-0.469 0.21-0.469 0.469v2.020h-2.064c-0.581 0-1.053-0.472-1.053-1.053v-0.939c0-0.259-0.21-0.469-0.469-0.469s-0.469 0.21-0.469 0.469v0.939c0 1.098 0.893 1.991 1.991 1.991h21.345c1.098 0 1.991-0.893 1.991-1.991v-4.527c0-2.093-1.37-3.972-3.426-4.576zM4.848 13.561h-2.122c-0.066 0-0.116-0.059-0.104-0.124l0.567-3.327h1.197l0.567 3.327c0.011 0.065-0.039 0.124-0.104 0.124zM4.312 8.336v0.836h-1.051v-0.836c0-0.018 0.015-0.033 0.033-0.033h0.984c0.019-0 0.033 0.015 0.033 0.033zM11.764 23.323l0.187 0.287-4.786-2.844 3.038-1.984c0.138 1.616 0.671 3.172 1.561 4.541zM11.76 21.3c1.103 0.157 2.255 0.157 3.359 0-0.213 0.525-0.476 1.031-0.789 1.512l-0.891 1.369-0.891-1.369c-0.313-0.481-0.576-0.987-0.789-1.512zM15.116 23.323c0.891-1.369 1.424-2.925 1.561-4.541l3.038 1.984-4.785 2.844 0.187-0.287zM17.858 8.367h1.111v1.506h-0.551c-0.309 0-0.56-0.251-0.56-0.56v-0.947h0zM3.914 3.964l9.506-3.024c0.012-0.004 0.025-0.004 0.038 0l9.506 3.024c0.020 0.006 0.046 0.015 0.043 0.064s-0.031 0.053-0.052 0.057l-3.143 0.535-1.18-0.146c-0.257-0.032-0.491 0.151-0.523 0.408s0.151 0.491 0.408 0.523l0.838 0.104v1.922l-11.832-0v-1.921l4.85-0.6c0.707-0.087 1.423-0.087 2.129 0l1.836 0.227c0.257 0.032 0.491-0.151 0.523-0.408s-0.151-0.491-0.408-0.523l-1.836-0.227c-0.782-0.097-1.576-0.097-2.359 0l-5.193 0.643-3.144-0.535c-0.020-0.003-0.048-0.008-0.052-0.057s0.024-0.057 0.043-0.064zM7.909 9.874l-0.001-1.506h1.113v0.947c0 0.309-0.251 0.56-0.56 0.56l-0.553-0zM8.941 13.014c-0.024-0.382-0.341-0.681-0.722-0.681-0.171 0-0.309-0.139-0.309-0.309v-1.213h0.552c0.825 0 1.497-0.672 1.497-1.497v-0.947h6.962v0.947c0 0.825 0.672 1.497 1.497 1.497h0.552v1.213c0 0.171-0.139 0.309-0.309 0.309-0.381 0-0.698 0.299-0.722 0.681-0.149 2.367-2.125 4.221-4.499 4.221s-4.349-1.854-4.499-4.221zM13.44 18.172c0.834 0 1.626-0.191 2.336-0.53v0.297c0 0.801-0.108 1.592-0.316 2.354-1.274 0.243-2.714 0.253-4.040 0-0.208-0.762-0.316-1.553-0.316-2.354 0-0.010-0.001-0.020-0.002-0.029-0-0.002 0-0.004-0-0.006v-0.263c0.711 0.339 1.504 0.53 2.338 0.53z"></path>
        </symbol>
    </defs>
</svg>